<svg xmlns="http://www.w3.org/2000/svg" viewBox="0 0 120 120">
  <defs>
    <linearGradient id="g" x1="0" y1="0" x2="1" y2="1">
      <stop offset="0" stop-color="oklch(0.74 0.16 35)"/>
      <stop offset="1" stop-color="oklch(0.58 0.20 18)"/>
    </linearGradient>
  </defs>
  <rect x="6" y="6" width="108" height="108" rx="28" fill="url(#g)"/>
  <g transform="translate(24 24) scale(3)" fill="white">
    <path d="M3 7C3 5.34315 4.34315 4 6 4H9.5L11 5.6H18C19.6569 5.6 21 6.94315 21 8.6V9.5H3Z" opacity="0.78"/>
    <path d="M3 8.6C3 6.94315 4.34315 5.6 6 5.6H18C19.6569 5.6 21 6.94315 21 8.6V18C21 19.6569 19.6569 21 18 21H6C4.34315 21 3 19.6569 3 18Z"/>
    <rect x="6.4" y="9.4" width="11.2" height="9.2" rx="1.6" fill="white" opacity="0.94"/>
    <g transform="translate(12 14)" stroke="oklch(0.58 0.20 18)" stroke-width="1.5" stroke-linecap="round">
      <line x1="0" y1="-3" x2="0" y2="3"/>
      <line x1="-3" y1="0" x2="3" y2="0"/>
      <line x1="-2.1" y1="-2.1" x2="2.1" y2="2.1" opacity="0.55"/>
      <line x1="-2.1" y1="2.1" x2="2.1" y2="-2.1" opacity="0.55"/>
      <circle cx="0" cy="0" r="0.9" fill="oklch(0.58 0.20 18)"/>
    </g>
  </g>
</svg>
